<svg viewBox="0 0 72 72" xmlns="http://www.w3.org/2000/svg">
  <!-- Background circle -->
  <circle cx="36" cy="36" r="32" fill="#1a1a1a" stroke="none"/>
  
  <!-- Network nodes -->
  <circle cx="25" cy="20" r="3" fill="#4ade80" stroke="none"/>
  <circle cx="47" cy="18" r="3" fill="#4ade80" stroke="none"/>
  <circle cx="58" cy="30" r="3" fill="#4ade80" stroke="none"/>
  <circle cx="55" cy="50" r="3" fill="#4ade80" stroke="none"/>
  <circle cx="36" cy="55" r="3" fill="#4ade80" stroke="none"/>
  <circle cx="17" cy="52" r="3" fill="#4ade80" stroke="none"/>
  <circle cx="12" cy="35" r="3" fill="#4ade80" stroke="none"/>
  <circle cx="20" cy="35" r="3" fill="#4ade80" stroke="none"/>
  <circle cx="36" cy="36" r="4" fill="#22c55e" stroke="none"/>
  
  <!-- Connection lines -->
  <line x1="25" y1="20" x2="36" y2="36" stroke="#6b7280" stroke-width="1.5" opacity="0.7"/>
  <line x1="47" y1="18" x2="36" y2="36" stroke="#6b7280" stroke-width="1.5" opacity="0.7"/>
  <line x1="58" y1="30" x2="36" y2="36" stroke="#6b7280" stroke-width="1.5" opacity="0.7"/>
  <line x1="55" y1="50" x2="36" y2="36" stroke="#6b7280" stroke-width="1.5" opacity="0.7"/>
  <line x1="36" y1="55" x2="36" y2="36" stroke="#6b7280" stroke-width="1.5" opacity="0.7"/>
  <line x1="17" y1="52" x2="36" y2="36" stroke="#6b7280" stroke-width="1.5" opacity="0.7"/>
  <line x1="12" y1="35" x2="20" y2="35" stroke="#6b7280" stroke-width="1.5" opacity="0.7"/>
  <line x1="20" y1="35" x2="36" y2="36" stroke="#6b7280" stroke-width="1.5" opacity="0.7"/>
  
  <!-- Growth elements (small leaves/branches) -->
  <path d="M28 15 Q30 12 32 15 Q30 18 28 15" fill="#22c55e" opacity="0.8"/>
  <path d="M50 15 Q52 12 54 15 Q52 18 50 15" fill="#22c55e" opacity="0.8"/>
  <path d="M60 45 Q62 42 64 45 Q62 48 60 45" fill="#22c55e" opacity="0.8"/>
  <path d="M15 45 Q17 42 19 45 Q17 48 15 45" fill="#22c55e" opacity="0.8"/>
</svg>
